# xmcd
#
# Track frame offsets:
#	150
#	16532
#	37914
#	54972
#	72678
#	89991
#	107317
#	125546
#	138177
#	153334
#
# Disc length: 2254 seconds
# Revision: 0
# Processed by: cddbd v1.5.2PL0 Copyright (c) Steve Scherf et al.
# Submitted via: dBpowerAMP V12.0
#
DISCID=7a08cc0a
DTITLE=TJ Leonard - High On Lovin'
DYEAR=1900
DGENRE=Country
TTITLE0=The River
TTITLE1=Remeber Those Times
TTITLE2=There's No Doubt
TTITLE3=High On Livin'
TTITLE4=Up On That Hill
TTITLE5=American Dream
TTITLE6=Paradise Road
TTITLE7=No Fake On You
TTITLE8=The Right One
TTITLE9=Redneck Neighborhood
EXTD=
EXTT0=
EXTT1=
EXTT2=
EXTT3=
EXTT4=
EXTT5=
EXTT6=
EXTT7=
EXTT8=
EXTT9=
PLAYORDER=
